<svg xmlns="http://www.w3.org/2000/svg" x="0px" y="0px" width="100" height="100" viewBox="0,0,256,256">
<g fill="#dfd0b8" fill-rule="nonzero" stroke="none" stroke-width="1" stroke-linecap="butt" stroke-linejoin="miter" stroke-miterlimit="10" stroke-dasharray="" stroke-dashoffset="0" font-family="none" font-weight="none" font-size="none" text-anchor="none" style="mix-blend-mode: normal"><g transform="scale(5.12,5.12)"><path d="M41.70703,13.79297l-11.5,-11.5c-0.1875,-0.1875 -0.44141,-0.29297 -0.70703,-0.29297h-18.00781c-1.92578,0 -3.49219,1.5625 -3.49219,3.48047v38.42188c0,2.25781 1.84375,4.09766 4.11328,4.09766h25.77344c2.26953,0 4.11328,-1.83984 4.11328,-4.09766v-29.40234c0,-0.26562 -0.10547,-0.51953 -0.29297,-0.70703zM17,37c-0.55078,0 -1,-0.44922 -1,-1c0,-0.55078 0.44922,-1 1,-1c0.55078,0 1,0.44922 1,1c0,0.55078 -0.44922,1 -1,1zM17,32c-0.55078,0 -1,-0.44922 -1,-1c0,-0.55078 0.44922,-1 1,-1c0.55078,0 1,0.44922 1,1c0,0.55078 -0.44922,1 -1,1zM17,27c-0.55078,0 -1,-0.44922 -1,-1c0,-0.55078 0.44922,-1 1,-1c0.55078,0 1,0.44922 1,1c0,0.55078 -0.44922,1 -1,1zM33,37h-12v-2h12zM33,32h-12v-2h12zM33,27h-12v-2h12zM31.66797,14c-0.92187,0 -1.66797,-0.74609 -1.66797,-1.66797v-7.41797l9.08594,9.08594z"></path></g></g>
</svg>